<svg id="Layer_1" data-name="Layer 1" xmlns="http://www.w3.org/2000/svg" viewBox="0 0 442.13 665.82"><defs><style>.cls-1{fill:#e49d75;}.cls-1,.cls-2,.cls-3,.cls-4,.cls-5,.cls-6,.cls-7,.cls-9{fill-rule:evenodd;}.cls-3{fill:#e0e0e0;}.cls-4{fill:#a4a4a4;}.cls-5{fill:#590995;}.cls-6{fill:#713795;}.cls-7{fill:#03c4a1;}.cls-8{fill:none;stroke:#fff;stroke-linecap:round;stroke-linejoin:round;stroke-width:12.98px;}.cls-9{fill:#57ffdf;}.cls-10{font-size:72px;fill:#505050;font-family:DIN2014-Bold, "DIN 2014";font-weight:700;}</style></defs><g id="Layer_2" data-name="Layer 2"><g id="Layer_1-2" data-name="Layer 1-2"><path class="cls-1" d="M350.39,745.82l1.77,20.78,18.22.44L367,745Z" transform="translate(-30.66 -111.51)"/><path class="cls-1" d="M184.36,708.77l-8.46,28.56,8.64,9,15.33-25Z" transform="translate(-30.66 -111.51)"/><path class="cls-2" d="M349.06,761.93l-.33,15.4,47.76-.29c.33.22.09-7.55.09-7.55l-28.42-7.78Z" transform="translate(-30.66 -111.51)"/><path class="cls-2" d="M175.25,732.44l-9.7,13.23,20.28,28.72,19.16.13-.26-9.7-7.68-3.4-6.81-16.89Z" transform="translate(-30.66 -111.51)"/><path class="cls-3" d="M367.05,149.61h93.3v93.3h-93.3Z" transform="translate(-30.66 -111.51)"/><path class="cls-4" d="M367.05,149.61h93.3v20.84h-93.3Z" transform="translate(-30.66 -111.51)"/><path class="cls-1" d="M259.73,260.67c4.86-1.07,22.16-.61,26.79-3.09s61.78-45.3,67.53-51.13,12.86-10.89,18-17.23.17,11.23-4.32,14.69c-.52,4.7-.65,14.54-.65,14.54a8.59,8.59,0,0,0-6.79,1.71c-3.24,2.54-50.1,57.69-50.1,57.69S254.87,261.75,259.73,260.67Z" transform="translate(-30.66 -111.51)"/><path class="cls-5" d="M217.28,425.43c-2.9,11-8.49,88,8.7,126.52-7.46,28.17-45.35,159.45-45.35,159.45L199.47,728l97.12-147S276.37,420.19,217.28,425.43Z" transform="translate(-30.66 -111.51)"/><path class="cls-6" d="M316.44,420.67C320.37,431.6,360.53,575,360.53,575l9.08,174.19-20.78,1.64-64.55-175.4c-7.88-8.93-57.94-128.79-60.19-144.17C233.93,420.8,312.51,409.73,316.44,420.67Z" transform="translate(-30.66 -111.51)"/><path class="cls-7" d="M244.18,253.72c7.91,0,52.71,10.86,61.13,28.36,4.63,9.62,24.94,127.23,13.66,145.72s-89,17.7-104.16,3.76C206.28,423.74,203.53,253.66,244.18,253.72Z" transform="translate(-30.66 -111.51)"/><path class="cls-8" d="M37.15,118H161.59" transform="translate(-30.66 -111.51)"/><path class="cls-1" d="M234.26,233.7h17.16V267c-6.17,4.91-17.16,0-17.16,0Z" transform="translate(-30.66 -111.51)"/><path class="cls-1" d="M212.31,203.6c0-20.75,14.09-37.57,31.48-37.57s31.47,16.82,31.47,37.57-14.09,37.58-31.47,37.58S212.31,224.35,212.31,203.6Z" transform="translate(-30.66 -111.51)"/><path class="cls-2" d="M240,159.85c10.08-.23,22.89,6.18,22.89,10.63,0,7.7-11.94,25.16-20.83,32.32,2.49,5.75,4.77,9.55,4.77,14.43s-7.59,24-7.59,37c0,10.2,2.28,17.14,2.28,25.6,0,23.11-15.08,37.1-36.89,37.1s-36.46-23.65-36.55-42.85c-.11-23.54,26-52.43,32.33-70.18C205.74,188.92,215.83,159.85,240,159.85Z" transform="translate(-30.66 -111.51)"/><path class="cls-1" d="M233.34,205.54a7.88,7.88,0,1,1,7.88,7.88h0a7.87,7.87,0,0,1-7.87-7.87Z" transform="translate(-30.66 -111.51)"/><path class="cls-1" d="M318.11,317.65c8.84,2.1,45.05,8.17,52,6s78.55-70.45,84.13-75.5S471,236,472.37,227.21s0-16.22-12.14-20.6c.23,5.64.45,14.44.21,13.13-2.05-6.8-2.29-14.51-6-14.42-2,6.36.82,18.35-4.1,26.38-5.65,6.14-80.69,55.38-88.57,57.87-10.28,0-36.64-9-36.64-9S309.28,315.55,318.11,317.65Z" transform="translate(-30.66 -111.51)"/><path class="cls-9" d="M259.34,282.38c6.12-25.7,59.81-12.11,68.84-4.9,3.16,9.79-1.81,38.83-9.7,44.22C306.63,323.42,252.82,309.72,259.34,282.38Z" transform="translate(-30.66 -111.51)"/><path class="cls-8" d="M37.15,172.71h94" transform="translate(-30.66 -111.51)"/></g></g><text class="cls-10" transform="translate(363.45 121.34)">E</text></svg>