<?xml version="1.0" encoding="utf-8"?>
<!-- Generator: Adobe Illustrator 24.3.0, SVG Export Plug-In . SVG Version: 6.00 Build 0)  -->
<svg version="1.1" id="Layer_1" xmlns="http://www.w3.org/2000/svg" xmlns:xlink="http://www.w3.org/1999/xlink" x="0px" y="0px"
	 viewBox="0 0 442.1 665.8" style="enable-background:new 0 0 442.1 665.8;" xml:space="preserve">
<style type="text/css">
	.st0{fill-rule:evenodd;clip-rule:evenodd;fill:#E49D75;}
	.st1{fill-rule:evenodd;clip-rule:evenodd;}
	.st2{fill-rule:evenodd;clip-rule:evenodd;fill:#E0E0E0;}
	.st3{fill-rule:evenodd;clip-rule:evenodd;fill:#A4A4A4;}
	.st4{fill-rule:evenodd;clip-rule:evenodd;fill:#590995;}
	.st5{fill-rule:evenodd;clip-rule:evenodd;fill:#713795;}
	.st6{fill-rule:evenodd;clip-rule:evenodd;fill:#03C4A1;}
	.st7{fill-rule:evenodd;clip-rule:evenodd;fill:#57FFDF;}
	.st8{fill:#505050;}
	.st9{font-family:'Arial-BoldMT';}
	.st10{font-size:72px;}
</style>
<g id="Layer_2_1_">
	<g id="Layer_1-2">
		<path class="st0" d="M112.3,633.5l-3.4,22l18.2-0.4l1.8-20.8L112.3,633.5z"/>
		<path class="st0" d="M279.4,609.8l15.3,25l8.6-9l-8.5-28.6L279.4,609.8z"/>
		<path class="st1" d="M111.1,650.2L82.7,658c0,0-0.2,7.8,0.1,7.5l47.8,0.3l-0.3-15.4L111.1,650.2z"/>
		<path class="st1" d="M289,633l-6.8,16.9l-7.7,3.4l-0.3,9.7l19.2-0.1l20.3-28.7l-9.7-13.2L289,633z"/>
		<path class="st2" d="M112.2,131.4H18.9V38.1h93.3V131.4z"/>
		<path class="st3" d="M112.2,58.9H18.9V38.1h93.3V58.9z"/>
		<path class="st0" d="M169.1,166.3c0,0-46.9-55.1-50.1-57.7c-1.9-1.5-4.4-2.1-6.8-1.7c0,0-0.1-9.8-0.6-14.5
			c-4.5-3.5-9.5-21-4.3-14.7s12.3,11.4,18,17.2s62.9,48.6,67.5,51.1s21.9,2,26.8,3.1C224.4,150.2,169.1,166.3,169.1,166.3z"/>
		<path class="st4" d="M182.7,469.5l97.1,147l18.8-16.6c0,0-37.9-131.3-45.3-159.5c17.2-38.5,11.6-115.5,8.7-126.5
			C202.9,308.7,182.7,469.5,182.7,469.5z"/>
		<path class="st5" d="M255.2,319.8c-2.3,15.4-52.3,135.2-60.2,144.2l-64.6,175.4l-20.8-1.6l9.1-174.2c0,0,40.2-143.4,44.1-154.3
			C166.8,298.2,245.4,309.3,255.2,319.8z"/>
		<path class="st6" d="M264.5,320.1c-15.2,13.9-92.9,14.7-104.2-3.8s9-136.1,13.7-145.7c8.4-17.5,53.2-28.4,61.1-28.4
			C275.8,142.2,273,312.2,264.5,320.1z"/>
		<path class="st0" d="M245,155.5c0,0-11,4.9-17.2,0v-33.3H245V155.5z"/>
		<path class="st0" d="M235.5,129.7c-17.4,0-31.5-16.8-31.5-37.6s14.1-37.6,31.5-37.6S267,71.3,267,92.1S252.9,129.7,235.5,129.7z"
			/>
		<path class="st1" d="M278.9,92.4c6.3,17.8,32.4,46.6,32.3,70.2c-0.1,19.2-14.7,42.9-36.5,42.9s-36.9-14-36.9-37.1
			c0-8.5,2.3-15.4,2.3-25.6c0-13-7.6-32.1-7.6-37s2.3-8.7,4.8-14.4c-8.9-7.2-20.8-24.6-20.8-32.3c0-4.5,12.8-10.9,22.9-10.6
			C263.5,48.3,273.5,77.4,278.9,92.4z"/>
		<path class="st0" d="M245.9,94c0,4.3-3.5,7.9-7.9,7.9l0,0c-4.4,0-7.9-3.5-7.9-7.9c0-4.4,3.5-7.9,7.9-7.9
			C242.4,86.1,245.9,89.7,245.9,94L245.9,94z"/>
		<path class="st0" d="M154.2,169.1c0,0-26.4,9-36.6,9c-7.9-2.5-82.9-51.7-88.6-57.9c-4.9-8-2.1-20-4.1-26.4c-3.7-0.1-4,7.6-6,14.4
			c-0.2,1.3,0-7.5,0.2-13.1C6.9,99.5,5.5,106.9,6.9,115.7s12.5,15.9,18.1,20.9s77.2,73.3,84.1,75.5s43.2-3.9,52-6
			C170,204,154.2,169.1,154.2,169.1z"/>
		<path class="st7" d="M160.8,210.2c-7.9-5.4-12.9-34.4-9.7-44.2c9-7.2,62.7-20.8,68.8,4.9C226.5,198.2,172.7,211.9,160.8,210.2z"/>
	</g>
</g>
<text transform="matrix(1 0 0 1 41.3335 121.34)" class="st8 st9 st10">E</text>
</svg>
